<mxfile modified="2022-01-14T02:23:06.728Z" host="app.diagrams.net" agent="5.0 (Windows NT 10.0; WOW64) AppleWebKit/537.36 (KHTML, like Gecko) Chrome/79.0.3945.79 Safari/537.36" etag="OvuQgPKZY_508xezu1U6" version="16.2.4" type="github">
  <diagram id="Ht1M8jgEwFfnCIfOTk4-" name="Page-1">
    <mxGraphModel dx="1382" dy="772" grid="0" gridSize="10" guides="1" tooltips="1" connect="1" arrows="1" fold="1" page="1" pageScale="1" pageWidth="1169" pageHeight="827" math="0" shadow="0">
      <root>
        <mxCell id="0" />
        <mxCell id="1" parent="0" />
        <mxCell id="DJlKxc8Ydcjrk-kJCw-7-2" style="edgeStyle=orthogonalEdgeStyle;rounded=0;orthogonalLoop=1;jettySize=auto;html=1;entryX=0;entryY=0.25;entryDx=0;entryDy=0;strokeWidth=3;" edge="1" parent="1" source="nWQtlcYZ32i_l5jBkG5F-98" target="DJlKxc8Ydcjrk-kJCw-7-1">
          <mxGeometry relative="1" as="geometry" />
        </mxCell>
        <mxCell id="DJlKxc8Ydcjrk-kJCw-7-3" value="存储、查询" style="edgeLabel;html=1;align=center;verticalAlign=middle;resizable=0;points=[];fontSize=18;fontStyle=1" vertex="1" connectable="0" parent="DJlKxc8Ydcjrk-kJCw-7-2">
          <mxGeometry x="-0.163" y="2" relative="1" as="geometry">
            <mxPoint as="offset" />
          </mxGeometry>
        </mxCell>
        <mxCell id="nWQtlcYZ32i_l5jBkG5F-98" value="业务系统&lt;br&gt;（设备日志、聊天消息）" style="rounded=1;whiteSpace=wrap;html=1;fontSize=18;fontStyle=1;fillColor=#1ba1e2;strokeColor=#006EAF;shadow=1;fontColor=#ffffff;" parent="1" vertex="1">
          <mxGeometry x="30.19" y="223" width="219.75" height="60" as="geometry" />
        </mxCell>
        <mxCell id="DJlKxc8Ydcjrk-kJCw-7-6" style="edgeStyle=orthogonalEdgeStyle;rounded=0;orthogonalLoop=1;jettySize=auto;html=1;entryX=0;entryY=0.5;entryDx=0;entryDy=0;fontSize=18;strokeWidth=3;" edge="1" parent="1" source="OHFn_rcIb0ek-qpLiRhw-43" target="OHFn_rcIb0ek-qpLiRhw-71">
          <mxGeometry relative="1" as="geometry" />
        </mxCell>
        <mxCell id="DJlKxc8Ydcjrk-kJCw-7-9" value="统计分析&lt;br&gt;(sparksql)" style="edgeLabel;html=1;align=center;verticalAlign=middle;resizable=0;points=[];fontSize=18;fontStyle=1" vertex="1" connectable="0" parent="DJlKxc8Ydcjrk-kJCw-7-6">
          <mxGeometry x="-0.1534" y="3" relative="1" as="geometry">
            <mxPoint x="1" y="1" as="offset" />
          </mxGeometry>
        </mxCell>
        <mxCell id="DJlKxc8Ydcjrk-kJCw-7-10" style="rounded=0;orthogonalLoop=1;jettySize=auto;html=1;entryX=0.5;entryY=1;entryDx=0;entryDy=0;fontSize=18;strokeWidth=3;" edge="1" parent="1" source="OHFn_rcIb0ek-qpLiRhw-43" target="DJlKxc8Ydcjrk-kJCw-7-1">
          <mxGeometry relative="1" as="geometry" />
        </mxCell>
        <mxCell id="DJlKxc8Ydcjrk-kJCw-7-11" value="存储统计分析结果" style="edgeLabel;html=1;align=center;verticalAlign=middle;resizable=0;points=[];fontSize=18;fontStyle=1" vertex="1" connectable="0" parent="DJlKxc8Ydcjrk-kJCw-7-10">
          <mxGeometry x="0.1821" y="-3" relative="1" as="geometry">
            <mxPoint y="12" as="offset" />
          </mxGeometry>
        </mxCell>
        <mxCell id="OHFn_rcIb0ek-qpLiRhw-43" value="spark&lt;br&gt;" style="rounded=1;whiteSpace=wrap;html=1;fontSize=18;fontStyle=1;fillColor=#d80073;strokeColor=#A50040;shadow=1;fontColor=#ffffff;" parent="1" vertex="1">
          <mxGeometry x="522.5" y="493" width="148.5" height="60" as="geometry" />
        </mxCell>
        <mxCell id="DJlKxc8Ydcjrk-kJCw-7-7" style="rounded=0;orthogonalLoop=1;jettySize=auto;html=1;entryX=1;entryY=0.5;entryDx=0;entryDy=0;fontSize=18;strokeWidth=3;edgeStyle=orthogonalEdgeStyle;exitX=0.5;exitY=0;exitDx=0;exitDy=0;" edge="1" parent="1" source="OHFn_rcIb0ek-qpLiRhw-71" target="DJlKxc8Ydcjrk-kJCw-7-1">
          <mxGeometry relative="1" as="geometry" />
        </mxCell>
        <mxCell id="DJlKxc8Ydcjrk-kJCw-7-8" value="同步&lt;br&gt;(hive外表、datax)" style="edgeLabel;html=1;align=center;verticalAlign=middle;resizable=0;points=[];fontSize=18;fontStyle=1" vertex="1" connectable="0" parent="DJlKxc8Ydcjrk-kJCw-7-7">
          <mxGeometry x="0.1818" y="-4" relative="1" as="geometry">
            <mxPoint x="37" y="98" as="offset" />
          </mxGeometry>
        </mxCell>
        <mxCell id="OHFn_rcIb0ek-qpLiRhw-71" value="hive" style="rounded=1;whiteSpace=wrap;html=1;fontSize=18;fontStyle=1;fillColor=#b0e3e6;strokeColor=#0e8088;shadow=1;" parent="1" vertex="1">
          <mxGeometry x="870" y="479" width="144.25" height="75" as="geometry" />
        </mxCell>
        <mxCell id="DJlKxc8Ydcjrk-kJCw-7-1" value="phoenix + hbase&lt;br&gt;(mybatis, jdbc, mybatisplus)" style="rounded=1;whiteSpace=wrap;html=1;fontSize=18;fontStyle=1;fillColor=#60a917;strokeColor=#2D7600;shadow=1;fontColor=#ffffff;" vertex="1" parent="1">
          <mxGeometry x="448.75" y="212" width="297.25" height="180" as="geometry" />
        </mxCell>
        <mxCell id="DJlKxc8Ydcjrk-kJCw-7-14" style="edgeStyle=none;rounded=0;orthogonalLoop=1;jettySize=auto;html=1;entryX=0;entryY=0.75;entryDx=0;entryDy=0;fontSize=18;strokeWidth=3;" edge="1" parent="1" source="DJlKxc8Ydcjrk-kJCw-7-13" target="DJlKxc8Ydcjrk-kJCw-7-1">
          <mxGeometry relative="1" as="geometry" />
        </mxCell>
        <mxCell id="DJlKxc8Ydcjrk-kJCw-7-15" value="查询统计分析结果" style="edgeLabel;html=1;align=center;verticalAlign=middle;resizable=0;points=[];fontSize=18;fontStyle=1" vertex="1" connectable="0" parent="DJlKxc8Ydcjrk-kJCw-7-14">
          <mxGeometry x="-0.3058" y="-2" relative="1" as="geometry">
            <mxPoint x="22" y="-1" as="offset" />
          </mxGeometry>
        </mxCell>
        <mxCell id="DJlKxc8Ydcjrk-kJCw-7-13" value="分析系统" style="rounded=1;whiteSpace=wrap;html=1;fontSize=18;fontStyle=1;fillColor=#f5f5f5;strokeColor=#666666;shadow=1;fontColor=#333333;" vertex="1" parent="1">
          <mxGeometry x="30.189999999999998" y="319" width="219.75" height="60" as="geometry" />
        </mxCell>
      </root>
    </mxGraphModel>
  </diagram>
</mxfile>
